<svg style="" width="17.142857" height="17.142857" version="1.1" xmlns="http://www.w3.org/2000/svg">
<path d="M4.263393 1.149554 C5.580364 0.383181 7.016361 -0.000000 8.571429 -0.000000 C10.126496 -0.000000 11.560633 0.383181 12.873884 1.149554 C14.187135 1.915926 15.226931 2.955723 15.993304 4.268973 C16.759676 5.582224 17.142857 7.016361 17.142857 8.571429 C17.142857 10.126496 16.759676 11.560633 15.993304 12.873884 C15.226931 14.187135 14.187135 15.226931 12.873884 15.993304 C11.560633 16.759676 10.126496 17.142857 8.571429 17.142857 C7.016361 17.142857 5.582224 16.759676 4.268973 15.993304 C2.955723 15.226931 1.915926 14.187135 1.149554 12.873884 C0.383181 11.560633 0.000000 10.126496 0.000000 8.571429 C0.000000 7.016361 0.383181 5.582224 1.149554 4.268973 C1.915926 2.955723 2.953862 1.915926 4.263393 1.149554 Z M11.629464 5.814732 C11.614583 5.822173 11.579241 5.857515 11.523437 5.920759 C11.467634 5.984003 11.417411 6.019345 11.372768 6.026786 C11.387649 6.026786 11.404390 6.008185 11.422991 5.970982 C11.441592 5.933780 11.460193 5.892857 11.478795 5.848214 C11.497396 5.803571 11.510417 5.777530 11.517857 5.770089 C11.562500 5.718006 11.644345 5.662203 11.763393 5.602679 C11.867560 5.558035 12.061010 5.513393 12.343750 5.468750 C12.596727 5.409226 12.786458 5.450148 12.912946 5.591518 C12.898065 5.576637 12.933407 5.528274 13.018973 5.446429 C13.104539 5.364583 13.158482 5.319941 13.180804 5.312500 C13.203125 5.297619 13.258928 5.280878 13.348214 5.262277 C13.437500 5.243676 13.493303 5.215774 13.515625 5.178571 L13.537946 4.933036 C13.448660 4.940476 13.383557 4.914435 13.342634 4.854911 C13.301711 4.795387 13.277530 4.717262 13.270089 4.620536 C13.270089 4.635417 13.247768 4.665178 13.203125 4.709821 C13.203125 4.657738 13.186384 4.627976 13.152902 4.620536 C13.119419 4.613095 13.076637 4.616815 13.024554 4.631696 C12.972470 4.646577 12.938988 4.650298 12.924107 4.642857 C12.849702 4.620536 12.793899 4.592634 12.756696 4.559152 C12.719494 4.525669 12.689732 4.464286 12.667411 4.375000 C12.645089 4.285714 12.630208 4.229911 12.622768 4.207589 C12.607887 4.170387 12.572545 4.129465 12.516741 4.084821 C12.460937 4.040178 12.425595 4.002976 12.410714 3.973214 C12.403274 3.958333 12.393973 3.937872 12.382812 3.911830 C12.371652 3.885789 12.360491 3.861607 12.349330 3.839286 C12.338170 3.816964 12.323289 3.796503 12.304687 3.777902 C12.286086 3.759301 12.265625 3.750000 12.243304 3.750000 C12.220982 3.750000 12.194941 3.768601 12.165179 3.805804 C12.135417 3.843006 12.107515 3.880208 12.081473 3.917411 C12.055431 3.954613 12.038691 3.973214 12.031250 3.973214 C12.008928 3.958333 11.986607 3.952753 11.964286 3.956473 C11.941964 3.960193 11.925223 3.963914 11.914062 3.967634 C11.902902 3.971354 11.886161 3.982515 11.863839 4.001116 C11.841518 4.019717 11.822917 4.032738 11.808036 4.040179 C11.785714 4.055060 11.754092 4.066220 11.713170 4.073661 C11.672247 4.081101 11.640625 4.088542 11.618304 4.095982 C11.729911 4.058780 11.726191 4.017857 11.607143 3.973214 C11.532738 3.943452 11.473215 3.932292 11.428571 3.939732 C11.495536 3.909970 11.523438 3.865328 11.512277 3.805804 C11.501116 3.746279 11.469494 3.694197 11.417411 3.649554 L11.473214 3.649554 C11.465774 3.619792 11.434152 3.588170 11.378348 3.554687 C11.322544 3.521205 11.257441 3.489583 11.183036 3.459821 C11.108631 3.430059 11.060268 3.407738 11.037946 3.392857 C10.978422 3.355655 10.851935 3.320313 10.658482 3.286830 C10.465029 3.253348 10.342262 3.251488 10.290179 3.281250 C10.252976 3.325893 10.236235 3.364955 10.239955 3.398437 C10.243676 3.431920 10.258556 3.484003 10.284598 3.554687 C10.310640 3.625372 10.323661 3.671875 10.323661 3.694196 C10.331101 3.738840 10.310640 3.787202 10.262277 3.839286 C10.213913 3.891369 10.189732 3.936012 10.189732 3.973214 C10.189732 4.025298 10.241815 4.082961 10.345982 4.146205 C10.450149 4.209450 10.487351 4.289434 10.457589 4.386161 C10.435268 4.445685 10.375745 4.505208 10.279018 4.564732 C10.182291 4.624256 10.122768 4.668899 10.100446 4.698661 C10.063244 4.758185 10.057664 4.827009 10.083705 4.905134 C10.109747 4.983259 10.148809 5.044643 10.200893 5.089286 C10.215774 5.104167 10.221354 5.119048 10.217634 5.133929 C10.213914 5.148810 10.200893 5.165551 10.178571 5.184152 C10.156250 5.202753 10.135789 5.217634 10.117187 5.228795 C10.098586 5.239955 10.074405 5.252976 10.044643 5.267857 L10.011161 5.290179 C9.929315 5.327381 9.853051 5.305060 9.782366 5.223214 C9.711681 5.141369 9.661458 5.044643 9.631696 4.933036 C9.579613 4.747023 9.520090 4.635417 9.453125 4.598214 C9.281993 4.538690 9.174107 4.542410 9.129464 4.609375 C9.092262 4.512648 8.939733 4.415923 8.671875 4.319196 C8.485862 4.252232 8.270091 4.237351 8.024554 4.274554 C8.069197 4.267113 8.069197 4.211310 8.024554 4.107143 C7.972470 3.995535 7.901786 3.950893 7.812500 3.973214 C7.834822 3.928571 7.849702 3.863468 7.857143 3.777902 C7.864583 3.692336 7.868304 3.642113 7.868304 3.627232 C7.890625 3.530505 7.935268 3.444941 8.002232 3.370536 C8.009673 3.363095 8.035714 3.331473 8.080357 3.275670 C8.125000 3.219866 8.160342 3.169643 8.186384 3.125000 C8.212426 3.080357 8.214286 3.058036 8.191964 3.058036 C8.452382 3.087798 8.638392 3.046876 8.750000 2.935268 C8.787203 2.898065 8.829985 2.834822 8.878348 2.745536 C8.926712 2.656250 8.965774 2.593006 8.995536 2.555804 C9.062500 2.511160 9.114583 2.490699 9.151786 2.494420 C9.188988 2.498140 9.242931 2.518601 9.313616 2.555804 C9.384301 2.593006 9.438244 2.611607 9.475446 2.611607 C9.579614 2.619048 9.637277 2.578125 9.648437 2.488839 C9.659598 2.399553 9.631697 2.325149 9.564732 2.265625 C9.654018 2.273066 9.665179 2.209822 9.598214 2.075893 C9.568452 2.023809 9.538691 1.990327 9.508929 1.975446 C9.419642 1.945684 9.319197 1.964285 9.207589 2.031250 C9.148065 2.061012 9.155506 2.090774 9.229911 2.120536 C9.222470 2.113095 9.187128 2.152157 9.123884 2.237723 C9.060640 2.323289 8.999256 2.388393 8.939732 2.433036 C8.880208 2.477679 8.820685 2.459078 8.761161 2.377232 C8.753720 2.369792 8.733259 2.319569 8.699777 2.226562 C8.666294 2.133556 8.630953 2.083333 8.593750 2.075893 C8.534226 2.075893 8.474703 2.131696 8.415179 2.243304 C8.437500 2.183779 8.396578 2.127976 8.292411 2.075893 C8.188244 2.023809 8.098959 1.994048 8.024554 1.986607 C8.165923 1.897321 8.136162 1.796876 7.935268 1.685268 C7.883184 1.655506 7.806920 1.636905 7.706473 1.629464 C7.606026 1.622024 7.533482 1.636905 7.488839 1.674107 C7.451637 1.726191 7.431176 1.768973 7.427455 1.802455 C7.423735 1.835938 7.442336 1.865699 7.483259 1.891741 C7.524182 1.917783 7.563244 1.938244 7.600446 1.953125 C7.637649 1.968006 7.680431 1.982887 7.728795 1.997768 C7.777158 2.012649 7.808780 2.023809 7.823661 2.031250 C7.927828 2.105655 7.957590 2.157738 7.912946 2.187500 C7.898065 2.194941 7.866444 2.207961 7.818080 2.226562 C7.769717 2.245164 7.726935 2.261905 7.689732 2.276786 C7.652530 2.291667 7.630208 2.306548 7.622768 2.321429 C7.600446 2.351191 7.600446 2.403273 7.622768 2.477679 C7.645089 2.552084 7.637649 2.604167 7.600446 2.633929 C7.563244 2.596726 7.529762 2.531622 7.500000 2.438616 C7.470238 2.345610 7.444197 2.284226 7.421875 2.254464 C7.473959 2.321429 7.380954 2.343750 7.142857 2.321429 L7.031250 2.310268 C7.001488 2.310268 6.941965 2.317708 6.852679 2.332589 C6.763392 2.347470 6.687128 2.351191 6.623884 2.343750 C6.560640 2.336309 6.510417 2.306548 6.473214 2.254464 C6.443452 2.194940 6.443452 2.120536 6.473214 2.031250 C6.480655 2.001488 6.495536 1.994048 6.517857 2.008929 C6.488095 1.986607 6.447173 1.951265 6.395089 1.902902 C6.343006 1.854538 6.305804 1.822917 6.283482 1.808036 C5.941219 1.919643 5.591520 2.072172 5.234375 2.265625 C5.279018 2.273066 5.323660 2.269345 5.368304 2.254464 C5.405506 2.239583 5.453869 2.215402 5.513393 2.181920 C5.572917 2.148437 5.610119 2.127976 5.625000 2.120536 C5.877977 2.016369 6.034226 1.990327 6.093750 2.042411 L6.149554 1.986607 C6.253721 2.105655 6.328125 2.198660 6.372768 2.265625 C6.320684 2.235863 6.209078 2.232143 6.037946 2.254464 C5.889136 2.299107 5.807292 2.343750 5.792411 2.388393 C5.844494 2.477679 5.863095 2.544643 5.848214 2.589286 C5.818452 2.566964 5.775670 2.529762 5.719866 2.477679 C5.664062 2.425595 5.610119 2.384673 5.558036 2.354911 C5.505952 2.325149 5.450149 2.306548 5.390625 2.299107 C5.271577 2.299107 5.189732 2.302827 5.145089 2.310268 C4.058774 2.905509 3.184527 3.731394 2.522321 4.787946 C2.574405 4.840030 2.619047 4.869792 2.656250 4.877232 C2.686012 4.884673 2.704613 4.918154 2.712054 4.977679 C2.719494 5.037203 2.728795 5.078125 2.739955 5.100446 C2.751116 5.122768 2.793898 5.111607 2.868304 5.066964 C2.935268 5.126488 2.946429 5.197172 2.901786 5.279018 C2.909226 5.271577 3.072915 5.372023 3.392857 5.580357 C3.534227 5.706846 3.612351 5.784970 3.627232 5.814732 C3.649554 5.896578 3.612352 5.963541 3.515625 6.015625 C3.508184 6.000744 3.474703 5.967262 3.415179 5.915179 C3.355654 5.863095 3.322173 5.848214 3.314732 5.870536 C3.292411 5.907738 3.294271 5.976562 3.320312 6.077009 C3.346354 6.177456 3.385416 6.223958 3.437500 6.216518 C3.385416 6.216518 3.350074 6.276041 3.331473 6.395089 C3.312872 6.514137 3.303571 6.646205 3.303571 6.791295 C3.303571 6.936385 3.299851 7.023809 3.292411 7.053571 L3.314732 7.064732 C3.292411 7.154018 3.312872 7.282365 3.376116 7.449777 C3.439360 7.617188 3.519345 7.689732 3.616071 7.667411 C3.519345 7.689732 3.593749 7.849701 3.839286 8.147321 C3.883929 8.206846 3.913690 8.240327 3.928571 8.247768 C3.950893 8.262649 3.995535 8.290550 4.062500 8.331473 C4.129465 8.372396 4.185268 8.409598 4.229911 8.443080 C4.274554 8.476563 4.311756 8.515625 4.341518 8.560268 C4.371280 8.597470 4.408482 8.681175 4.453125 8.811384 C4.497768 8.941593 4.549851 9.029018 4.609375 9.073661 C4.594494 9.118304 4.629836 9.192708 4.715402 9.296875 C4.800968 9.401042 4.840030 9.486607 4.832589 9.553571 C4.825149 9.553571 4.815848 9.557292 4.804687 9.564732 C4.793527 9.572173 4.784226 9.575893 4.776786 9.575893 C4.799107 9.627976 4.856770 9.680059 4.949777 9.732143 C5.042783 9.784226 5.100446 9.832589 5.122768 9.877232 C5.130208 9.899554 5.137649 9.936756 5.145089 9.988839 C5.152530 10.040923 5.163690 10.081845 5.178571 10.111607 C5.193452 10.141369 5.223214 10.148810 5.267857 10.133929 C5.282738 9.985118 5.193453 9.754466 5.000000 9.441964 C4.888392 9.255951 4.825149 9.148066 4.810268 9.118304 C4.787946 9.081101 4.767485 9.023438 4.748884 8.945312 C4.730283 8.867187 4.713542 8.813244 4.698661 8.783482 C4.713542 8.783482 4.735863 8.789062 4.765625 8.800223 C4.795387 8.811384 4.827009 8.824405 4.860491 8.839286 C4.893973 8.854167 4.921875 8.869048 4.944196 8.883929 C4.966518 8.898810 4.973958 8.909970 4.966518 8.917411 C4.944196 8.969494 4.951637 9.034598 4.988839 9.112723 C5.026042 9.190849 5.070684 9.259672 5.122768 9.319196 C5.174851 9.378721 5.238095 9.449404 5.312500 9.531250 C5.386905 9.613096 5.431548 9.661458 5.446429 9.676339 C5.491072 9.720982 5.543154 9.793526 5.602679 9.893973 C5.662203 9.994420 5.662203 10.044643 5.602679 10.044643 C5.669643 10.044643 5.744047 10.083705 5.825893 10.161830 C5.907739 10.239956 5.970982 10.312500 6.015625 10.379464 C6.052828 10.438988 6.082589 10.535714 6.104911 10.669643 C6.127232 10.803572 6.145833 10.892857 6.160714 10.937500 C6.175595 10.989584 6.207217 11.039806 6.255580 11.088170 C6.303944 11.136533 6.350446 11.171875 6.395089 11.194196 C6.439732 11.216518 6.499256 11.246280 6.573661 11.283482 C6.648066 11.320685 6.696428 11.346726 6.718750 11.361607 C6.755953 11.376488 6.824776 11.415550 6.925223 11.478795 C7.025670 11.542039 7.105654 11.584821 7.165179 11.607143 C7.239584 11.636905 7.299107 11.651786 7.343750 11.651786 C7.388393 11.651786 7.442336 11.642485 7.505580 11.623884 C7.568825 11.605283 7.619047 11.592262 7.656250 11.584821 C7.767858 11.569940 7.875744 11.625743 7.979911 11.752232 C8.084078 11.878721 8.162202 11.956845 8.214286 11.986607 C8.482144 12.127977 8.686755 12.168899 8.828125 12.109375 C8.813244 12.116816 8.815104 12.144717 8.833705 12.193080 C8.852307 12.241444 8.882068 12.299107 8.922991 12.366071 C8.963914 12.433036 8.997396 12.486979 9.023437 12.527902 C9.049479 12.568825 9.069940 12.600446 9.084821 12.622768 C9.122024 12.667411 9.188988 12.723214 9.285714 12.790179 C9.382441 12.857143 9.449405 12.912946 9.486607 12.957589 C9.531250 12.927827 9.557292 12.894345 9.564732 12.857143 C9.542411 12.916667 9.568452 12.991071 9.642857 13.080357 C9.717262 13.169643 9.784226 13.206845 9.843750 13.191964 C9.947917 13.169643 10.000000 13.050596 10.000000 12.834821 C9.769344 12.946429 9.587054 12.879466 9.453125 12.633929 C9.453125 12.626488 9.443824 12.606027 9.425223 12.572545 C9.406622 12.539062 9.391741 12.507441 9.380580 12.477679 C9.369420 12.447917 9.360119 12.416295 9.352679 12.382812 C9.345238 12.349330 9.345238 12.321429 9.352679 12.299107 C9.360119 12.276786 9.378720 12.265625 9.408482 12.265625 C9.475447 12.265625 9.512649 12.252604 9.520089 12.226562 C9.527530 12.200521 9.520089 12.154018 9.497768 12.087054 C9.475446 12.020089 9.460566 11.971726 9.453125 11.941964 C9.445684 11.882440 9.404762 11.808036 9.330357 11.718750 C9.255952 11.629464 9.211310 11.573661 9.196429 11.551339 C9.159226 11.618304 9.099703 11.648066 9.017857 11.640625 C8.936011 11.633184 8.876488 11.599703 8.839286 11.540179 C8.839286 11.547619 8.833705 11.568080 8.822545 11.601562 C8.811384 11.635045 8.805804 11.659226 8.805804 11.674107 C8.709077 11.674107 8.653274 11.670387 8.638393 11.662946 C8.645833 11.640625 8.655134 11.575521 8.666295 11.467634 C8.677455 11.359746 8.690476 11.276042 8.705357 11.216518 C8.712798 11.186756 8.733259 11.142113 8.766741 11.082589 C8.800223 11.023065 8.828125 10.969122 8.850446 10.920759 C8.872768 10.872396 8.887649 10.825893 8.895089 10.781250 C8.902530 10.736607 8.885789 10.701265 8.844866 10.675223 C8.803943 10.649181 8.738840 10.639881 8.649554 10.647321 C8.508184 10.654762 8.411459 10.729166 8.359375 10.870536 C8.351934 10.892857 8.340774 10.931919 8.325893 10.987723 C8.311012 11.043527 8.292411 11.086309 8.270089 11.116071 C8.247768 11.145833 8.214286 11.171875 8.169643 11.194196 C8.117559 11.216518 8.028274 11.223958 7.901786 11.216518 C7.775297 11.209077 7.686012 11.190476 7.633929 11.160714 C7.537202 11.101190 7.453497 10.993304 7.382812 10.837054 C7.312128 10.680803 7.276786 10.543155 7.276786 10.424107 C7.276786 10.349702 7.286086 10.251117 7.304687 10.128348 C7.323289 10.005580 7.334449 9.912575 7.338170 9.849330 C7.341890 9.786086 7.321429 9.694941 7.276786 9.575893 C7.299107 9.561012 7.332589 9.525670 7.377232 9.469866 C7.421875 9.414062 7.459077 9.375000 7.488839 9.352679 C7.503720 9.345238 7.520461 9.339658 7.539062 9.335937 C7.557664 9.332217 7.574405 9.332217 7.589286 9.335937 C7.604167 9.339658 7.619048 9.334077 7.633929 9.319196 C7.648810 9.304315 7.659970 9.281994 7.667411 9.252232 C7.659970 9.244792 7.645089 9.233631 7.622768 9.218750 C7.600446 9.196428 7.585566 9.185268 7.578125 9.185268 C7.630209 9.207589 7.736234 9.202009 7.896205 9.168527 C8.056176 9.135044 8.158482 9.140625 8.203125 9.185268 C8.314733 9.267114 8.396577 9.259673 8.448661 9.162946 C8.448661 9.155506 8.439360 9.120164 8.420759 9.056920 C8.402158 8.993675 8.400298 8.943453 8.415179 8.906250 C8.452381 9.107144 8.560267 9.140626 8.738839 9.006696 C8.761161 9.029018 8.818824 9.047619 8.911830 9.062500 C9.004837 9.077381 9.069940 9.095982 9.107143 9.118304 C9.129464 9.133185 9.155506 9.153646 9.185268 9.179687 C9.215030 9.205729 9.235491 9.222470 9.246652 9.229911 C9.257813 9.237351 9.276414 9.235491 9.302455 9.224330 C9.328497 9.213170 9.360119 9.188988 9.397321 9.151786 C9.471727 9.255953 9.516369 9.345238 9.531250 9.419643 C9.613096 9.717263 9.683779 9.880952 9.743304 9.910714 C9.795387 9.933036 9.836309 9.940476 9.866071 9.933036 C9.895833 9.925595 9.912574 9.890253 9.916295 9.827009 C9.920015 9.763765 9.920015 9.711682 9.916295 9.670759 C9.912574 9.629836 9.906994 9.583334 9.899554 9.531250 L9.888393 9.441964 C9.888393 9.375000 9.888393 9.308036 9.888393 9.241071 L9.877232 9.151786 C9.765624 9.129464 9.696801 9.084822 9.670759 9.017857 C9.644717 8.950893 9.650297 8.882069 9.687500 8.811384 C9.724703 8.740699 9.780506 8.671875 9.854911 8.604911 C9.862351 8.597470 9.892113 8.584449 9.944196 8.565848 C9.996280 8.547247 10.053943 8.523066 10.117187 8.493304 C10.180432 8.463542 10.226934 8.433780 10.256696 8.404018 C10.412947 8.262648 10.468750 8.132441 10.424107 8.013393 C10.476191 8.013393 10.517113 7.979911 10.546875 7.912946 C10.539434 7.912946 10.520833 7.901786 10.491071 7.879464 C10.461309 7.857143 10.433408 7.838542 10.407366 7.823661 C10.381324 7.808780 10.364583 7.801339 10.357143 7.801339 C10.424107 7.764137 10.431548 7.704614 10.379464 7.622768 C10.416667 7.600446 10.444568 7.559524 10.463170 7.500000 C10.481771 7.440476 10.509672 7.403274 10.546875 7.388393 C10.613840 7.477679 10.691964 7.485119 10.781250 7.410714 C10.840774 7.351190 10.844494 7.291667 10.792411 7.232143 C10.829613 7.180059 10.905877 7.140997 11.021205 7.114955 C11.136533 7.088914 11.205357 7.053572 11.227679 7.008929 C11.279762 7.023810 11.309524 7.016369 11.316964 6.986607 C11.324405 6.956845 11.328125 6.912203 11.328125 6.852679 C11.328125 6.793154 11.339286 6.748512 11.361607 6.718750 C11.391369 6.681547 11.447172 6.648066 11.529018 6.618304 C11.610864 6.588542 11.659226 6.569941 11.674107 6.562500 L11.863839 6.439732 C11.886161 6.409970 11.886161 6.395089 11.863839 6.395089 C11.997769 6.409970 12.113095 6.369048 12.209821 6.272321 C12.284227 6.190476 12.261905 6.116072 12.142857 6.049107 C12.165179 6.004464 12.154018 5.969122 12.109375 5.943080 C12.064732 5.917039 12.008929 5.896577 11.941964 5.881696 C11.964286 5.874256 12.007068 5.872396 12.070312 5.876116 C12.133557 5.879836 12.172619 5.874256 12.187500 5.859375 C12.299108 5.784970 12.273066 5.725447 12.109375 5.680804 C11.982886 5.643601 11.822918 5.688243 11.629464 5.814732 Z M9.810268 15.602679 C11.343014 15.334820 12.648804 14.631702 13.727679 13.493304 C13.705357 13.470982 13.658855 13.454241 13.588170 13.443080 C13.517485 13.431920 13.470982 13.418899 13.448661 13.404018 C13.314731 13.351934 13.225447 13.322173 13.180804 13.314732 C13.188244 13.262649 13.178944 13.214286 13.152902 13.169643 C13.126860 13.125000 13.097098 13.091518 13.063616 13.069196 C13.030134 13.046875 12.983631 13.017113 12.924107 12.979911 C12.864583 12.942708 12.823661 12.916667 12.801339 12.901786 C12.786458 12.886905 12.760417 12.864583 12.723214 12.834821 C12.686012 12.805059 12.659970 12.784598 12.645089 12.773437 C12.630208 12.762277 12.602307 12.745536 12.561384 12.723214 C12.520461 12.700893 12.488839 12.693452 12.466518 12.700893 C12.444196 12.708333 12.406994 12.712054 12.354911 12.712054 L12.321429 12.723214 C12.299107 12.730655 12.278646 12.739955 12.260045 12.751116 C12.241443 12.762277 12.220982 12.773437 12.198661 12.784598 C12.176339 12.795759 12.161458 12.806920 12.154018 12.818080 C12.146577 12.829241 12.146577 12.838542 12.154018 12.845982 C11.997767 12.719493 11.863840 12.637649 11.752232 12.600446 C11.715030 12.593006 11.674107 12.572545 11.629464 12.539062 C11.584821 12.505580 11.545759 12.479539 11.512277 12.460937 C11.478794 12.442336 11.441592 12.436756 11.400670 12.444196 C11.359747 12.451637 11.316965 12.477678 11.272321 12.522321 C11.235119 12.559524 11.212798 12.615327 11.205357 12.689732 C11.197917 12.764137 11.190476 12.812500 11.183036 12.834821 C11.130952 12.797619 11.130952 12.732515 11.183036 12.639509 C11.235119 12.546503 11.242560 12.477679 11.205357 12.433036 C11.183036 12.388393 11.143973 12.371652 11.088170 12.382812 C11.032366 12.393973 10.987723 12.410714 10.954241 12.433036 C10.920759 12.455357 10.877976 12.486979 10.825893 12.527902 C10.773809 12.568825 10.740327 12.593006 10.725446 12.600446 C10.710565 12.607887 10.678944 12.628348 10.630580 12.661830 C10.582217 12.695313 10.550595 12.723214 10.535714 12.745536 C10.513393 12.775298 10.491072 12.819940 10.468750 12.879464 C10.446428 12.938988 10.427827 12.979911 10.412946 13.002232 C10.398065 12.972470 10.355283 12.948289 10.284598 12.929687 C10.213913 12.911086 10.178571 12.890625 10.178571 12.868304 C10.193452 12.942709 10.208333 13.072916 10.223214 13.258929 C10.238095 13.444941 10.256696 13.586309 10.279018 13.683036 C10.331101 13.913692 10.286459 14.092261 10.145089 14.218750 C9.944195 14.404763 9.836310 14.553571 9.821429 14.665179 C9.791667 14.828870 9.836309 14.925595 9.955357 14.955357 C9.955357 15.007441 9.925596 15.083705 9.866071 15.184152 C9.806547 15.284599 9.780506 15.364583 9.787946 15.424107 C9.787946 15.468750 9.795387 15.528273 9.810268 15.602679 Z M17.142857 15.714286" style="fill:black"/>
</svg>