<?xml version="1.0" encoding="UTF-8"?>
<svg width="24px" height="24px" viewBox="0 0 24 24" version="1.1" xmlns="http://www.w3.org/2000/svg" xmlns:xlink="http://www.w3.org/1999/xlink">
    <title>icon-darkmode</title>
    <g id="icon-darkmode" stroke="none" stroke-width="1" fill="none" fill-rule="evenodd">
        <path d="M8.3907455,0 C7.93830129,1.29563599 7.71208226,2.61181902 7.71208226,3.94858612 C7.71208226,7.36248535 8.91515476,10.2724812 11.3213368,12.6786632 C13.7275188,15.0848452 16.6375147,16.2879177 20.0514139,16.2879177 C21.388182,16.2879177 22.704364,16.0616987 24,15.6092545 C23.1773738,18.0771332 21.6966684,20.0925368 19.5578406,21.655527 C17.4190129,23.2185172 15.0128668,24 12.3393316,24 C8.92543239,24 6.0154365,22.7969275 3.6092545,20.3907455 C1.20307249,17.9845635 0,15.0745676 0,11.6606684 C0,8.98713316 0.781482776,6.58098715 2.34447301,4.44215938 C3.90746324,2.30333162 5.92286684,0.822626221 8.3907455,0 Z" fill="#000000" fill-rule="nonzero"></path>
    </g>
</svg>