<?xml version="1.0" encoding="UTF-8"?>
<svg width="32px" height="32px" viewBox="0 0 32 32" version="1.1" xmlns="http://www.w3.org/2000/svg" xmlns:xlink="http://www.w3.org/1999/xlink">
    <title>Fill 1</title>
    <g id="Page-1" stroke="none" stroke-width="1" fill="none" fill-rule="evenodd">
        <g id="Project" transform="translate(-286.000000, -4991.000000)" fill="#000000">
            <path d="M302,4991 C299.801704,4991 297.728343,4991.41891 295.779857,4992.25674 C293.831372,4993.09457 292.132715,4994.23876 290.68384,4995.68934 C289.234965,4997.13991 288.09212,4998.8343 287.255269,5000.77257 C286.418419,5002.71084 286,5004.78038 286,5006.98125 C286,5009.20713 286.418419,5011.28917 287.255269,5013.22744 C288.09212,5015.1657 289.234965,5016.86009 290.68384,5018.31067 C292.132715,5019.76124 293.831372,5020.90543 295.779857,5021.74326 C297.728343,5022.58109 299.801704,5023 302,5023 C304.198288,5023 306.271649,5022.58109 308.220135,5021.74326 C310.168622,5020.90543 311.867279,5019.76124 313.316155,5018.31067 C314.765032,5016.86009 315.907879,5015.1657 316.744729,5013.22744 C317.581579,5011.28917 318,5009.20713 318,5006.98125 C318,5004.78038 317.581579,5002.71084 316.744729,5000.77257 C315.907879,4998.8343 314.765032,4997.13991 313.316155,4995.68934 C311.867279,4994.23876 310.168622,4993.09457 308.220135,4992.25674 C306.271649,4991.41891 304.198288,4991 302,4991 Z M300.388757,5013.39625 L294.018735,5006.98125 L296.266976,5004.73036 L300.426229,5008.89449 L307.770488,5001.50411 L309.981262,5003.7925 L300.388757,5013.39625 Z" id="Fill-1"></path>
        </g>
    </g>
</svg>