<svg style="" width="23.340000" height="23.340000" version="1.1" xmlns="http://www.w3.org/2000/svg">
<path d="M8.160000 -0.000000 C7.719998 1.260006 7.500000 2.539994 7.500000 3.840000 C7.500000 7.160017 8.669988 9.989988 11.010000 12.330000 C13.350012 14.670012 16.179983 15.840000 19.500000 15.840000 C20.800007 15.840000 22.079994 15.620002 23.340000 15.180000 C22.539996 17.580012 21.100010 19.539992 19.020000 21.060000 C16.939990 22.580008 14.600013 23.340000 12.000000 23.340000 C8.679983 23.340000 5.850012 22.170012 3.510000 19.830000 C1.169988 17.489988 0.000000 14.660017 0.000000 11.340000 C0.000000 8.739987 0.759992 6.400010 2.280000 4.320000 C3.800008 2.239990 5.759988 0.800004 8.160000 -0.000000 Z M24.000000 21.000000" style="fill:black"/>
</svg>