<?xml version="1.0" encoding="UTF-8"?>
<svg width="40px" height="40px" viewBox="0 0 40 40" version="1.1" xmlns="http://www.w3.org/2000/svg" xmlns:xlink="http://www.w3.org/1999/xlink">
    <title>jc-logo</title>
    <g id="Page-1" stroke="none" stroke-width="1" fill="none" fill-rule="evenodd">
        <g id="Project" transform="translate(-132.000000, -18.000000)">
            <g id="jc-logo" transform="translate(132.000000, 18.000000)">
                <circle id="Oval" fill="#000000" cx="20" cy="20" r="20"></circle>
                <path d="M14.8168092,24.9659091 C15.4077183,24.9659091 15.9261842,24.8536932 16.372207,24.6292614 C16.8182297,24.4048295 17.1669513,24.0852273 17.4183717,23.6704545 C17.6697922,23.2556818 17.7955024,22.7670455 17.7955024,22.2045455 L17.7955024,22.2045455 L17.7955024,16.1193182 L15.9716388,16.1193182 L15.9716388,22.2045455 C15.9716388,22.4829545 15.9304456,22.7173295 15.8480592,22.9076705 C15.7656729,23.0980114 15.6456445,23.2421875 15.487974,23.3401989 C15.3303036,23.4382102 15.137832,23.4872159 14.9105592,23.4872159 C14.6946502,23.4872159 14.5078604,23.443892 14.3501899,23.3572443 C14.1925195,23.2705966 14.0689399,23.1455966 13.9794513,22.9822443 C13.8899627,22.818892 13.8423774,22.6221591 13.8366956,22.3920455 L13.8366956,22.3920455 L12,22.3920455 C11.997207,22.9715909 12.1207865,23.4524148 12.3707865,23.834517 C12.6207865,24.2166193 12.9595649,24.5007102 13.3871217,24.6867898 C13.8146786,24.8728693 14.2912411,24.9659091 14.8168092,24.9659091 Z M24.2287411,24.9659091 C24.7884002,24.9659091 25.2905308,24.881392 25.7351331,24.712358 C26.1797354,24.5433239 26.5632581,24.3132102 26.8857013,24.022017 C27.2081445,23.7308239 27.4652467,23.399858 27.6570081,23.0291193 C27.8487695,22.6583807 27.9687979,22.2727273 28.0170933,21.8721591 L28.0170933,21.8721591 L26.1506161,21.8636364 C26.1080024,22.0965909 26.0320081,22.3039773 25.9226331,22.4857955 C25.8132581,22.6676136 25.6761842,22.821733 25.5114115,22.9481534 C25.3466388,23.0745739 25.1584286,23.1704545 24.9467808,23.2357955 C24.7351331,23.3011364 24.5057297,23.3338068 24.2585706,23.3338068 C23.8182297,23.3338068 23.4304456,23.2258523 23.0952183,23.0099432 C22.7599911,22.7940341 22.4993377,22.4744318 22.3132581,22.0511364 C22.1271786,21.6278409 22.0341388,21.1051136 22.0341388,20.4829545 C22.0341388,19.8778409 22.1264683,19.3629261 22.3111274,18.9382102 C22.4957865,18.5134943 22.7557297,18.1896307 23.090957,17.9666193 C23.4261842,17.743608 23.8196502,17.6321023 24.2713547,17.6321023 C24.5213547,17.6321023 24.753599,17.6676136 24.9680877,17.7386364 C25.1825763,17.8096591 25.372207,17.9119318 25.5369797,18.0454545 C25.7017524,18.1789773 25.8366956,18.3401989 25.9418092,18.5291193 C26.0469229,18.7180398 26.1165252,18.9332386 26.1506161,19.1747159 L26.1506161,19.1747159 L28.0170933,19.1747159 C27.9574342,18.6690341 27.8217808,18.2201705 27.6101331,17.828125 C27.3984854,17.4360795 27.1250479,17.1044034 26.7898206,16.8330966 C26.4545933,16.5617898 26.0703604,16.3551136 25.6371217,16.2130682 C25.2038831,16.0710227 24.7344229,16 24.2287411,16 C23.4616956,16 22.7713547,16.1754261 22.1577183,16.5262784 C21.544082,16.8771307 21.0582865,17.3863636 20.700332,18.0539773 C20.3423774,18.7215909 20.1634002,19.53125 20.1634002,20.4829545 C20.1634002,21.4318182 20.3402467,22.2400568 20.6939399,22.9076705 C21.0476331,23.5752841 21.5305877,24.0852273 22.1428036,24.4375 C22.7550195,24.7897727 23.450332,24.9659091 24.2287411,24.9659091 Z" id="JC" fill="#FFFFFF" fill-rule="nonzero"></path>
            </g>
        </g>
    </g>
</svg>